<?xml version="1.0" standalone="no"?>
<!DOCTYPE svg PUBLIC "-//W3C//DTD SVG 1.1//EN" "http://www.w3.org/Graphics/SVG/1.1/DTD/svg11.dtd">
<svg width="100%" height="100%" version="1.1" xmlns="http://www.w3.org/2000/svg">

<rect width="600" height="600" style="fill:rgb(255, 204, 255); stroke-width:1;stroke:rgb(0,0,0)" />
<rect  width="217" height="120" x="-11" y="-4" style="fill:rgb(255, 255, 255); stroke-width:1.0; stroke-opacity: 1; fill-opacity: 0; stroke:rgb(0,0,0)" />
<text  x="20" y="112">Please don't stamp over age box</text>
<rect  width="189" height="36" x="17" y="99" style="fill:rgb(255, 255, 255); stroke-width:0.0; stroke-opacity: 0; fill-opacity: 0; stroke:rgb(0,0,0)" />
<rect  width="129" height="117" x="206" y="-1" style="fill:rgb(255, 255, 255); stroke-width:1.0; stroke-opacity: 1; fill-opacity: 0; stroke:rgb(0,0,0)" />
<text  x="210" y="14">Age</text>
<rect  width="39" height="29" x="207" y="1" style="fill:rgb(255, 255, 255); stroke-width:0.0; stroke-opacity: 0; fill-opacity: 0; stroke:rgb(0,0,0)" />
<text  x="210" y="63">D.o.B</text>
<rect  width="50" height="19" x="207" y="50" style="fill:rgb(255, 255, 255); stroke-width:0.0; stroke-opacity: 0; fill-opacity: 0; stroke:rgb(0,0,0)" />
<rect  width="236" height="117" x="335" y="-1" style="fill:rgb(255, 255, 255); stroke-width:1.0; stroke-opacity: 1; fill-opacity: 0; stroke:rgb(0,0,0)" />
<text  x="338" y="14">Title, Forename, Surname &amp; Address</text>
<rect  width="219" height="23" x="335" y="1" style="fill:rgb(255, 255, 255); stroke-width:0.0; stroke-opacity: 0; fill-opacity: 0; stroke:rgb(0,0,0)" />
<text  x="339" y="102">NHS number</text>
<rect  width="88" height="26" x="336" y="89" style="fill:rgb(255, 255, 255); stroke-width:0.0; stroke-opacity: 0; fill-opacity: 0; stroke:rgb(0,0,0)" />
<text  x="3" y="129">Endorsements</text>
<rect  width="458" height="236" x="0" y="116" style="fill:rgb(255, 255, 255); stroke-width:1.0; stroke-opacity: 1; fill-opacity: 0; stroke:rgb(0,0,0)" />
<rect  width="112" height="237" x="459" y="116" style="fill:rgb(255, 255, 255); stroke-width:0.0; stroke-opacity: 0; stroke:rgb(0,0,0)" />
<text  x="4" y="365">Signature of Prescriber</text>
<rect  width="248" height="62" x="1" y="352" style="fill:rgb(255, 255, 255); stroke-width:1.0; stroke-opacity: 1; fill-opacity: 0; stroke:rgb(0,0,0)" />
<text  x="252" y="365">Date</text>
<rect  width="172" height="62" x="249" y="352" style="fill:rgb(255, 255, 255); stroke-width:1.0; stroke-opacity: 1; fill-opacity: 0; stroke:rgb(0,0,0)" />
<rect  width="357" height="112" x="64" y="414" style="fill:rgb(255, 255, 255); stroke-width:1.0; stroke-opacity: 1; stroke:rgb(0,0,0)" />
<text  x="6" y="428">For</text>
<rect  width="31" height="13" x="3" y="415" style="fill:rgb(255, 255, 255); stroke-width:0.0; stroke-opacity: 0; fill-opacity: 0; stroke:rgb(0,0,0)" />
<text  x="5" y="440">dispenser</text>
<rect  width="63" height="15" x="2" y="427" style="fill:rgb(255, 255, 255); stroke-width:0.0; stroke-opacity: 0; fill-opacity: 0; stroke:rgb(0,0,0)" />
<text  x="5" y="454">No. of</text>
<rect  width="40" height="10" x="2" y="441" style="fill:rgb(255, 255, 255); stroke-width:0.0; stroke-opacity: 0; fill-opacity: 0; stroke:rgb(0,0,0)" />
<text  x="4" y="468">Prescns.</text>
<rect  width="55" height="11" x="1" y="455" style="fill:rgb(255, 255, 255); stroke-width:0.0; stroke-opacity: 0; fill-opacity: 0; stroke:rgb(0,0,0)" />
<text  x="4" y="481">on form</text>
<rect  width="45" height="14" x="1" y="468" style="fill:rgb(255, 255, 255); stroke-width:0.0; stroke-opacity: 0; fill-opacity: 0; stroke:rgb(0,0,0)" />
<rect  width="52" height="42" x="5" y="484" style="fill:rgb(255, 255, 255); stroke-width:1.0; stroke-opacity: 1; fill-opacity: 0; stroke:rgb(0,0,0)" />
<text  x="315" y="541">FP10PCDNC0406</text>
<rect  width="109" height="22" x="312" y="528" style="fill:rgb(255, 255, 255); stroke-width:0.0; stroke-opacity: 0; fill-opacity: 0; stroke:rgb(0,0,0)" />
<text  x="21" y="24">Dispensary stamp</text>
<rect  width="76" height="20" x="18" y="11" style="fill:rgb(255, 255, 255); stroke-width:0.0; stroke-opacity: 0; fill-opacity: 0; stroke:rgb(0,0,0)" />
</svg>